#!OML:ASF I:\golf\golf\golf 2\Subject 1\2002-09-07\Subject1.ASF
:FULLY-SPECIFIED
:DEGREES
79
root -11.054 17.9061 4.71568 -7.93617 82.7278 -27.2101
lowerback 4.7555 1.64845 -2.14708
upperback 5.40473 2.24058 3.97541
thorax 2.68252 1.04382 5.27679
lowerneck -13.5417 -1.24028 1.32848
upperneck 41.4769 1.92218 -4.75335
head 17.6628 0.937431 -1.89659
rclavicle 8.34896e-015 1.66979e-014
rhumerus -13.2464 24.6207 -98.8744
rradius 46.3499
rwrist -50.927
rhand -29.3308 -8.11973
rfingers 7.12502
rthumb -2.67119 -38.0828
lclavicle 8.34896e-015 1.66979e-014
lhumerus -9.22896 -45.2 104.893
lradius 44.3232
lwrist 50.4329
lhand -12.1951 66.4567
lfingers 7.12502
lthumb -166.131 84.0258
rfemur -35.6485 -2.64979 16.0894
rtibia 30.7207
rfoot -8.34855 -4.86504
rtoes -7.7453
lfemur -33.6491 5.74869 -10.3142
ltibia 27.2582
lfoot -8.97079 -1.16502
ltoes -18.6113
80
root -11.0538 17.9068 4.71646 -7.97366 82.7075 -27.2319
lowerback 4.77453 1.65468 -2.1277
upperback 5.40651 2.24938 3.95992
thorax 2.67389 1.04927 5.24857
lowerneck -13.5117 -1.25591 1.34052
upperneck 41.4561 1.89074 -4.7524
head 17.6408 0.92666 -1.90328
rclavicle 1.70955e-014 1.59028e-015
rhumerus -13.2284 24.512 -98.9115
rradius 46.32
rwrist -50.7369
rhand -29.2843 -8.07662
rfingers 7.12502
rthumb -2.62624 -38.0402
lclavicle 1.70955e-014 1.59028e-015
lhumerus -9.22469 -45.2004 104.854
lradius 44.3679
lwrist 50.5523
lhand -12.2543 66.4874
lfingers 7.12502
lthumb -166.188 83.9911
rfemur -35.628 -2.60785 16.0899
rtibia 30.7087
rfoot -8.32257 -4.84345
rtoes -7.43418
lfemur -33.6104 5.7071 -10.2798
ltibia 27.2405
lfoot -8.90756 -1.20441
ltoes -18.1821
81
root -11.0536 17.9055 4.71863 -8.10672 82.6677 -27.384
lowerback 4.73421 1.65574 -2.1332
upperback 5.40971 2.25054 3.9654
thorax 2.6993 1.04891 5.25893
lowerneck -13.5017 -1.2604 1.32866
upperneck 41.4278 1.88429 -4.75786
head 17.6213 0.920417 -1.90414
rclavicle 1.63003e-014 3.57812e-014
rhumerus -13.2164 24.5621 -98.9217
rradius 46.2989
rwrist -50.6414
rhand -29.2698 -8.14929
rfingers 7.12502
rthumb -2.61227 -38.113
lclavicle 1.63003e-014 3.57812e-014
lhumerus -9.2058 -45.2199 104.803
lradius 44.4268
lwrist 50.6934
lhand -12.4015 66.6603
lfingers 7.12502
lthumb -166.33 83.8087
rfemur -35.6353 -2.56059 16.1218
rtibia 30.6838
rfoot -8.31787 -4.83106
rtoes -7.27575
lfemur -33.6164 5.74006 -10.2426
ltibia 27.235
lfoot -8.84985 -1.26232
ltoes -17.8301
82
root -11.0532 17.9054 4.72047 -8.43322 82.6113 -27.7041
lowerback 4.73159 1.66465 -2.10387
upperback 5.42129 2.26352 3.98353
thorax 2.71178 1.05595 5.26136
lowerneck -13.5083 -1.25073 1.31102
upperneck 41.4067 1.9049 -4.76767
head 17.6122 0.923706 -1.90134
rclavicle -1.27222e-014 -6.36111e-015
rhumerus -13.1995 24.6433 -98.8981
rradius 46.2818
rwrist -50.6717
rhand -29.348 -8.11964
rfingers 7.12502
rthumb -2.68775 -38.0825
lclavicle -1.27222e-014 -6.36111e-015
lhumerus -9.14988 -45.1904 104.753
lradius 44.3288
lwrist 50.5924
lhand -12.1683 66.6221
lfingers 7.12502
lthumb -166.105 83.8621
rfemur -35.6066 -2.46792 16.1718
rtibia 30.6548
rfoot -8.30126 -4.89781
rtoes -7.49783
lfemur -33.5944 5.78697 -10.1778
ltibia 27.2462
lfoot -8.89481 -1.18382
ltoes -18.173
83
root -11.053 17.9072 4.7201 -8.37324 82.5967 -27.6385
lowerback 4.76445 1.67271 -2.09378
upperback 5.40708 2.27432 3.97963
thorax 2.67785 1.06258 5.24955
lowerneck -13.4914 -1.24601 1.33839
upperneck 41.4146 1.92432 -4.80883
head 17.6143 0.931477 -1.9218
rclavicle 2.74323e-014 1.43125e-014
rhumerus -13.2248 24.6938 -98.8811
rradius 46.2869
rwrist -50.6867
rhand -29.4656 -8.09229
rfingers 7.12502
rthumb -2.80141 -38.0536
lclavicle 2.74323e-014 1.43125e-014
lhumerus -9.16316 -45.2514 104.737
lradius 44.2097
lwrist 50.496
lhand -11.8384 66.2906
lfingers 7.12502
lthumb -165.787 84.2157
rfemur -35.5861 -2.43492 16.1574
rtibia 30.6291
rfoot -8.29467 -4.9371
rtoes -7.48889
lfemur -33.5867 5.74901 -10.1749
ltibia 27.2671
lfoot -8.9901 -0.992071
ltoes -19.1516
84
root -11.0543 17.9078 4.72006 -8.27925 82.5944 -27.5583
lowerback 4.78082 1.68011 -2.093
upperback 5.3892 2.28379 3.96647
thorax 2.64946 1.06814 5.2338
lowerneck -13.4818 -1.24248 1.3518
upperneck 41.4229 1.92273 -4.79713
head 17.6162 0.93508 -1.91919
rclavicle -8.34896e-015 -4.13472e-014
rhumerus -13.2273 24.6719 -98.8914
rradius 46.2527
rwrist -50.5592
rhand -29.4793 -8.13765
rfingers 7.12502
rthumb -2.81455 -38.0988
lclavicle -8.34896e-015 -4.13472e-014
lhumerus -9.23662 -45.5006 104.768
lradius 44.0638
lwrist 50.7946
lhand -12.1556 65.8617
lfingers 7.12502
lthumb -166.093 84.6233
rfemur -35.6026 -2.46277 16.1561
rtibia 30.6111
rfoot -8.27572 -4.8891
rtoes -7.4122
lfemur -33.6085 5.72169 -10.1801
ltibia 27.2701
lfoot -9.01746 -0.907237
ltoes -19.6105
85
root -11.0561 17.9072 4.72138 -8.56349 82.5813 -27.8459
lowerback 4.77896 1.68131 -2.06557
upperback 5.40786 2.28655 3.96785
thorax 2.67054 1.07 5.22022
lowerneck -13.5134 -1.23056 1.33869
upperneck 41.4075 1.9196 -4.75002
head 17.6145 0.936173 -1.89565
rclavicle -1.35174e-014 7.95139e-016
rhumerus -13.1978 24.7173 -98.8794
rradius 46.2586
rwrist -50.473
rhand -29.4695 -8.18629
rfingers 7.12502
rthumb -2.80509 -38.1476
lclavicle -1.35174e-014 7.95139e-016
lhumerus -9.20105 -45.6952 104.769
lradius 43.8986
lwrist 51.1713
lhand -12.5684 65.5054
lfingers 7.12502
lthumb -166.491 84.9528
rfemur -35.6104 -2.47408 16.2182
rtibia 30.5956
rfoot -8.25185 -4.8518
rtoes -7.75472
lfemur -33.6145 5.70622 -10.1169
ltibia 27.2625
lfoot -8.98994 -0.905331
ltoes -19.6238
86
root -11.0559 17.907 4.72254 -8.85715 82.6099 -28.105
lowerback 4.79894 1.64671 -2.06336
upperback 5.43009 2.2413 3.98724
thorax 2.68685 1.04697 5.24085
lowerneck -13.5066 -1.21592 1.32036
upperneck 41.3832 1.9488 -4.76376
head 17.6006 0.942085 -1.89292
rclavicle -2.0276e-014 -5.80451e-014
rhumerus -13.2352 24.8988 -98.8559
rradius 46.3435
rwrist -50.4581
rhand -29.4208 -8.32412
rfingers 7.12502
rthumb -2.75811 -38.286
lclavicle -2.0276e-014 -5.80451e-014
lhumerus -9.03727 -45.4648 104.69
lradius 44.0161
lwrist 50.9835
lhand -11.622 65.5162
lfingers 7.12502
lthumb -165.579 85.0048
rfemur -35.5496 -2.47829 16.2424
rtibia 30.5674
rfoot -8.28484 -4.87722
rtoes -7.77981
lfemur -33.5896 5.67219 -10.0793
ltibia 27.2733
lfoot -9.01946 -0.9207
ltoes -19.7196
87
root -11.0549 17.9082 4.7222 -9.26795 82.6361 -28.4485
lowerback 4.86199 1.611 -2.03377
upperback 5.44262 2.19542 4.01124
thorax 2.66973 1.0254 5.24901
lowerneck -13.4875 -1.21405 1.31204
upperneck 41.3959 1.97406 -4.8026
head 17.6052 0.946496 -1.905
rclavicle -1.82882e-014 -4.6118e-014
rhumerus -13.2761 25.0165 -98.8587
rradius 46.3708
rwrist -50.3952
rhand -29.3133 -8.46412
rfingers 7.12502
rthumb -2.65429 -38.4273
lclavicle -1.82882e-014 -4.6118e-014
lhumerus -9.01167 -45.4571 104.668
lradius 44.3658
lwrist 51.5481
lhand -11.9708 65.9025
lfingers 7.12502
lthumb -165.915 84.5949
rfemur -35.4336 -2.48784 16.2675
rtibia 30.5214
rfoot -8.27362 -4.90529
rtoes -7.53476
lfemur -33.5311 5.65839 -10.0483
ltibia 27.3
lfoot -9.08143 -0.89945
ltoes -19.6718
88
root -11.0546 17.9096 4.72215 -9.70093 82.5567 -28.8811
lowerback 4.86065 1.64074 -1.95332
upperback 5.44844 2.23738 4.00979
thorax 2.67462 1.0491 5.20053
lowerneck -13.4943 -1.23685 1.36382
upperneck 41.4044 1.93764 -4.83665
head 17.6105 0.935664 -1.93709
rclavicle 2.8625e-014 1.51076e-014
rhumerus -13.2582 24.9605 -98.8784
rradius 46.3458
rwrist -50.3617
rhand -29.3377 -8.46643
rfingers 7.12502
rthumb -2.67782 -38.4294
lclavicle 2.8625e-014 1.51076e-014
lhumerus -8.97846 -45.6162 104.619
lradius 44.4651
lwrist 51.8232
lhand -12.1033 65.8727
lfingers 7.12502
lthumb -166.043 84.6158
rfemur -35.4107 -2.45685 16.3602
rtibia 30.4709
rfoot -8.20448 -4.86831
rtoes -7.25148
lfemur -33.5213 5.73302 -9.97178
ltibia 27.3255
lfoot -9.06581 -0.760811
ltoes -19.7503
89
root -11.0544 17.9092 4.72304 -9.93665 82.4833 -29.1756
lowerback 4.79279 1.66107 -1.906
upperback 5.44536 2.26523 4.01101
thorax 2.70782 1.06375 5.17624
lowerneck -13.4848 -1.24636 1.36616
upperneck 41.3762 1.92284 -4.84967
head 17.5909 0.927563 -1.94545
rclavicle -1.19271e-014 -1.19271e-014
rhumerus -13.1943 24.7901 -98.8956
rradius 46.2471
rwrist -50.2362
rhand -29.3989 -8.39818
rfingers 7.12502
rthumb -2.73695 -38.3604
lclavicle -1.19271e-014 -1.19271e-014
lhumerus -8.88758 -45.7719 104.54
lradius 44.314
lwrist 51.8034
lhand -11.9641 65.7767
lfingers 7.12502
lthumb -165.908 84.7211
rfemur -35.4646 -2.47908 16.4582
rtibia 30.4255
rfoot -8.17338 -4.77721
rtoes -7.0715
lfemur -33.5872 5.8258 -9.91807
ltibia 27.355
lfoot -9.04809 -0.667083
ltoes -20.0078
